<?xml version="1.0" standalone="no"?>
<!DOCTYPE svg PUBLIC "-//W3C//DTD SVG 20010904//EN"
 "http://www.w3.org/TR/2001/REC-SVG-20010904/DTD/svg10.dtd">
<svg version="1.0" xmlns="http://www.w3.org/2000/svg"
 width="500.000000pt" height="500.000000pt" viewBox="0 0 500.000000 500.000000"
 preserveAspectRatio="xMidYMid meet">

<g transform="translate(0.000000,500.000000) scale(0.100000,-0.100000)"
fill="#000000" stroke="none">
<path d="M3594 3835 c-85 -16 -122 -33 -169 -81 -41 -40 -183 -250 -222 -327
-39 -79 -117 -190 -157 -224 -68 -61 -249 -133 -396 -160 -54 -9 -199 -18
-395 -23 -380 -11 -450 -22 -665 -112 -140 -58 -212 -101 -266 -161 -46 -51
-143 -213 -159 -267 -19 -64 -121 -183 -205 -240 -120 -82 -234 -125 -359
-136 l-80 -7 20 -38 c25 -50 86 -94 141 -104 46 -7 48 -5 -24 -34 -21 -8 -18
-11 35 -36 51 -24 68 -27 130 -23 40 3 81 8 92 12 12 5 4 -8 -20 -30 l-40 -37
61 6 c69 6 127 32 185 84 l41 37 -16 -38 c-9 -21 -16 -40 -16 -42 0 -27 114
66 145 119 25 44 25 46 23 233 -3 187 -3 190 25 261 27 67 66 131 67 108 0 -5
-10 -35 -21 -65 -23 -60 -28 -172 -19 -435 4 -124 3 -133 -22 -187 -16 -35
-48 -77 -83 -110 l-57 -54 -11 -154 c-21 -297 -15 -354 40 -379 30 -14 208
-14 234 -1 32 17 25 66 -15 106 -19 19 -44 34 -55 34 -12 0 -24 7 -28 16 -10
27 16 153 46 217 47 100 118 165 261 238 97 51 223 164 280 253 48 74 95 101
180 100 73 0 127 -20 248 -91 71 -41 83 -42 61 -1 -6 11 -7 18 -2 16 186 -90
236 -106 358 -119 142 -15 148 -17 140 -37 -4 -9 -9 -60 -11 -112 -5 -103 -8
-100 40 -35 20 28 28 15 15 -26 -15 -50 -13 -168 4 -214 l15 -40 10 27 c21 52
32 42 32 -30 l0 -69 31 -1 c49 -1 73 -33 119 -155 32 -86 41 -90 184 -95 140
-5 166 3 166 47 0 43 -34 78 -95 97 -49 16 -57 23 -77 63 -22 43 -23 58 -23
261 0 231 15 342 57 426 19 38 58 75 58 55 0 -6 -4 -12 -9 -15 -11 -7 -34 -96
-27 -104 11 -10 73 23 146 77 79 59 104 85 132 135 12 21 17 25 18 14 0 -10 4
-18 8 -18 15 0 71 106 87 165 25 93 26 94 39 56 l12 -34 12 29 c21 51 42 157
42 211 0 42 3 51 15 47 13 -5 15 8 15 82 0 49 -4 104 -10 122 -7 26 -6 33 3
29 49 -20 49 -20 44 -1 -67 224 -68 254 -16 298 34 29 37 30 168 45 157 17
222 61 269 181 47 122 39 138 -84 164 -160 35 -187 45 -224 89 -85 99 -117
125 -172 137 -81 18 -224 21 -304 5z m122 -307 c19 -59 34 -120 34 -135 0 -86
-52 -153 -116 -153 -43 0 -67 12 -121 61 -22 21 -64 49 -92 64 -84 42 -109
104 -72 174 l18 35 -5 -52 c-6 -64 10 -91 75 -129 27 -15 69 -44 94 -65 80
-67 138 -68 164 -3 19 44 19 90 0 151 -22 67 -35 158 -27 186 l7 23 3 -25 c2
-14 19 -73 38 -132z"/>
<path d="M1998 2083 c-14 -16 -38 -48 -53 -73 -47 -76 -168 -184 -277 -246
-55 -32 -102 -64 -105 -71 -3 -8 13 -89 36 -181 50 -201 61 -216 164 -227 59
-6 122 -2 170 11 28 9 21 52 -15 88 -22 22 -47 35 -75 39 -39 7 -43 10 -54 50
-6 23 -9 70 -6 105 7 88 43 143 132 205 89 61 159 128 201 193 27 42 64 117
64 130 0 2 -35 4 -78 4 -72 0 -80 -2 -104 -27z"/>
<path d="M3516 2008 c-22 -16 -61 -36 -88 -46 -26 -9 -50 -24 -53 -32 -9 -31
-26 -367 -20 -415 9 -76 26 -133 44 -148 9 -7 36 -20 60 -27 31 -10 50 -25 69
-52 24 -37 27 -38 83 -38 32 0 69 4 83 10 61 23 3 122 -78 134 -76 12 -106 67
-106 195 0 86 24 311 41 383 6 26 9 51 7 56 -1 5 -21 -4 -42 -20z"/>
</g>
</svg>
